<?xml version="1.0" encoding="utf-8"?>
<!-- Generator: Adobe Illustrator 27.9.0, SVG Export Plug-In . SVG Version: 6.00 Build 0)  -->
<svg version="1.1" id="katman_1" xmlns="http://www.w3.org/2000/svg" xmlns:xlink="http://www.w3.org/1999/xlink" x="0px" y="0px"
	 viewBox="0 0 1920 1080" style="enable-background:new 0 0 1920 1080;" xml:space="preserve">
<style type="text/css">
	.st0{fill:#252F6F;}
</style>
<path class="st0" d="M1216.4,796.1c-170.6,0-341.3,0-512,0c0-170.6,0-341.3,0-512c170.6,0,341.2,0,512,0
	C1216.4,454.7,1216.4,625.4,1216.4,796.1z M1021,774.3c0.1-0.4,0.2-0.8,0.2-1.2c12.1,0.8,22.3-3.9,30.7-12.1
	c7-6.9,13.5-14.3,19.6-22c11.2-14.3,24.8-24.9,42-30.9c8.1-2.9,16.1-6.4,24-10c17.1-7.8,26.4-21.3,28.1-40c0.7-8,1.5-15.9,1.9-23.9
	c0.8-16.6,4.8-32.1,14.3-46.1c5.7-8.4,10.9-17.1,15.7-26.1c7.5-13.9,8.5-28.4,1.2-42.6c-5.3-10.3-11.6-20.2-17.7-30.1
	c-5.9-9.6-10.8-19.5-11.9-30.9c-1.3-13.1-2.2-26.2-3.7-39.3c-1.8-16.1-9.3-28.7-24-36.3c-6.2-3.2-12.5-6.5-19.1-8.6
	c-22.5-7.2-40.8-19.8-54.6-39.1c-4.8-6.7-10.8-12.7-16.9-18.3c-9.9-9.2-21.9-13.2-35.5-10.9c-7.9,1.3-15.7,2.8-23.4,5
	c-17.4,4.8-34.8,7.6-52.7,3c-10.1-2.6-20.4-5-30.6-7.3c-16.4-3.6-30.8,0.3-42.6,12.2c-5.6,5.6-11.2,11.5-15.9,17.9
	c-12.2,16.3-27.3,28.5-46.8,35c-7.1,2.4-13.9,5.5-20.8,8.6c-15.6,7.1-25.9,18.5-28.3,36c-1.2,9.2-2.4,18.5-2.7,27.8
	c-0.5,18.2-5.7,34.6-16.1,49.6c-4.7,6.8-9,14-13,21.3c-9.2,16.3-9.2,32.7,0,49c4,7.1,8.2,14.1,12.8,20.9c9.5,13.9,15.4,29,16.1,46
	c0.4,8.8,1.1,17.6,2,26.4c1.7,17.3,9,31.3,25.3,39.2c7.5,3.6,15,7.2,22.8,10c18.9,6.6,34.7,17.2,46.7,33.5
	c5.7,7.7,12.4,14.8,19.3,21.5c8.4,8.2,18.8,13,30.8,11.7c9.7-1.1,19.5-2.5,28.9-5.2c20.2-5.8,40-7.3,60.4-1
	C998.5,770.1,1009.8,771.8,1021,774.3z"/>
<path class="st0" d="M1083.4,441.9c2.2,5.5,0.5,10.9-3.4,14.6c-4.6,4.4-10,8.5-15.8,10.8c-17.1,6.7-35,7.1-52.6,2.6
	c-17.9-4.5-35.2-10.9-53-16c-18-5.1-36.2-9.1-55.1-6.4c-17.8,2.5-32.2,10-39.1,27.5c-11.3,28.7,6.4,57.7,37,61.5
	c10.1,1.3,19.9,0.5,29.8-1.6c1.4-0.3,2.8-0.4,4.2-0.5c0.3,0.4,0.5,0.9,0.8,1.3c-1.3,1.2-2.4,2.9-3.9,3.4c-22.8,7.5-53,4.2-69.6-18.5
	c-13.4-18.2-11.6-43.8,3.7-62.5c15.2-18.4,35.2-26.8,58.4-28.6c25.5-2,49.6,4.2,73.1,13.1c17.3,6.6,35,11.9,53.6,13.4
	c6.7,0.5,13.6-0.5,20.3-1.5c3.8-0.5,6.5-2.9,7-7.3c0.2-2.1,2-4.1,3.1-6.2C1082.4,441.4,1082.9,441.6,1083.4,441.9z"/>
<path class="st0" d="M917.7,650.6c0-3.7,1.9-5.6,5.1-5.9c9.8-0.7,14.6-7.1,18-15.1c5.5-13.3,6.9-27.4,7-41.6
	c0.3-35.8,0.3-71.7,0.1-107.5c0-4.6,1.4-7.6,5.4-9.7c3.6-1.8,7-3.8,10.7-5.4c3-1.3,5-0.8,5,3.3c-0.1,36.5,0.2,73-0.3,109.5
	c-0.3,18.1-3.1,35.9-13.3,51.6c-8.1,12.4-18.9,21-34.7,21.1C919.8,651,918.8,650.7,917.7,650.6z"/>
</svg>
