<?xml version="1.0" encoding="UTF-8" standalone="no"?>
<!-- Created with Inkscape (http://www.inkscape.org/) -->

<svg
   width="512"
   height="512"
   viewBox="0 0 135.46666 135.46667"
   version="1.1"
   id="svg1"
   xml:space="preserve"
   xmlns="http://www.w3.org/2000/svg"
   xmlns:svg="http://www.w3.org/2000/svg"><defs
     id="defs1" /><g
     id="layer1"><path
       class="st0"
       d="m 84.071553,128.8197 c -2.96333,-0.66146 -5.97958,-1.11125 -8.86354,-1.98438 -5.3975,-1.64041 -10.66271,-1.24354 -15.980842,0.26459 -2.48708,0.71437 -5.08,1.08479 -7.64645,1.37583 -3.175,0.34396 -5.90021,-0.92604 -8.14917,-3.09562 -1.82563,-1.77271 -3.59833,-3.65125 -5.10646,-5.68855 -3.20146,-4.28625 -7.35542,-7.11729 -12.35604,-8.86354 -2.06375,-0.71437 -4.07458,-1.66687 -6.0325,-2.64583 -4.31271,-2.09021 -6.24417,-5.79438 -6.69396,-10.371674 -0.23812,-2.32833 -0.42333,-4.65666 -0.52917,-6.985 -0.1852,-4.49791 -1.74625,-8.49312 -4.2597903,-12.17083 -1.21708,-1.77271 -2.32833,-3.65125 -3.38666,-5.52979 -2.43417,-4.31271 -2.43417,-8.65188 0,-12.96459 1.08479,-1.905 2.19604,-3.83645 3.43958,-5.63562 2.7516703,-3.96875 4.1010403,-8.30792 4.2597903,-13.12333 0.0794,-2.46063 0.37042,-4.92125 0.71438,-7.35542 0.635,-4.60375 3.36021,-7.64646 7.48771,-9.525 1.79916,-0.82021 3.62479,-1.64041 5.50333,-2.27541 5.15937,-1.74625 9.15458,-4.947713 12.3825,-9.260421 1.27,-1.693334 2.72521,-3.2279166 4.20687,-4.7360416 3.14854,-3.148542 6.95854,-4.206875 11.27125,-3.227917 2.69875,0.608542 5.3975,1.243542 8.09625,1.931459 4.736042,1.217083 9.339792,0.47625 13.943552,-0.79375 2.03729,-0.555625 4.1275,-0.9525 6.19124,-1.322917 3.59834,-0.608542 6.74688,0.449792 9.39271,2.883958 1.61396,1.481667 3.20146,3.0691666 4.47146,4.8418746 3.651247,5.132917 8.493127,8.440205 14.446247,10.345205 1.74625,0.55563 3.38667,1.45521 5.05354,2.27542 3.91584,1.98437 5.87375,5.34458 6.35,9.60437 0.39688,3.46604 0.635,6.93209 0.97896,10.39813 0.29104,3.01625 1.5875,5.63562 3.14854,8.17562 1.61396,2.61938 3.25438,5.23875 4.68313,7.96396 1.95791,3.75708 1.66687,7.59354 -0.3175,11.27125 -1.27,2.35479 -2.67229,4.68313 -4.15396,6.90563 -2.48708,3.70416 -3.54542,7.8052 -3.78354,12.19729 -0.10584,2.11666 -0.3175,4.20687 -0.50271,6.32354 -0.44979,4.947714 -2.91042,8.493124 -7.43479,10.583334 -2.09021,0.9525 -4.18042,1.87854 -6.35,2.64584 -4.55084,1.5875 -8.14917,4.41854 -11.112497,8.17562 -1.5875,2.03729 -3.33375,3.99521 -5.18583,5.82083 -2.22251,2.16959 -4.8948,3.41313 -8.12271,3.20146 -0.0265,0.15875 -0.0265,0.26459 -0.0529,0.37042 z M 100.26405,43.359276 c -0.13229,-0.0529 -0.291037,-0.10583 -0.423327,-0.15875 -0.29105,0.52917 -0.74084,1.05834 -0.82021,1.64042 -0.13229,1.19062 -0.84667,1.79917 -1.85209,1.93146 -1.7727,0.23812 -3.59833,0.52916 -5.37104,0.39687 -4.92125,-0.37041 -9.57791,-1.79916 -14.18166,-3.54541 -6.24417,-2.3548 -12.59417,-3.99521 -19.341052,-3.46605 -6.13833,0.47625 -11.43,2.72521 -15.45166,7.56709 -4.07458,4.92125 -4.52438,11.69458 -0.97896,16.53646 4.39208,6.00604 12.3825,6.87916 18.415,4.89479 0.39687,-0.13229 0.68792,-0.58209 1.03187,-0.89959 -0.0794,-0.10583 -0.13229,-0.23812 -0.21166,-0.34395 -0.37042,0.0529 -0.74083,0.0529 -1.11125,0.13229 -2.59292,0.55562 -5.21229,0.76729 -7.88459,0.42333 -8.09625,-1.00542 -12.77937,-8.70479 -9.78958,-16.27187 1.82563,-4.65667 5.63563,-6.61459 10.34521,-7.27605 5.02708,-0.71437 9.8425,0.34396 14.578542,1.69334 4.68313,1.32291 9.28688,3.04271 14.02292,4.23333 4.65666,1.16417 9.39271,1.08479 13.91708,-0.68792 1.53458,-0.60854 2.98979,-1.69333 4.18042,-2.8575 1.058327,-1.05833 1.508117,-2.48708 0.926037,-3.94229 z m -43.947289,54.16021 c 0.29104,0.0265 0.52916,0.10583 0.79375,0.10583 4.15396,-0.0529 7.037912,-2.30187 9.181042,-5.5827 2.69875,-4.1275 3.43958,-8.86355 3.51896,-13.6525 0.15875,-9.6573 0.0529,-19.31459 0.0794,-28.97188 0,-1.11125 -0.52916,-1.21708 -1.32291,-0.87312 -0.97896,0.42333 -1.87855,0.9525 -2.83105,1.42875 -1.05833,0.52916 -1.42875,1.32291 -1.42875,2.56645 0.0529,9.47209 0.0529,18.97063 -0.0265,28.44271 -0.0265,3.75709 -0.42334,7.48771 -1.852092,11.00667 -0.87312,2.14312 -2.16958,3.83646 -4.7625,3.99521 -0.84666,0.0265 -1.34937,0.55562 -1.34937,1.53458 z"
       id="path1"
       style="stroke-width:0.264583" /></g><style
     type="text/css"
     id="style1">
	.st0{fill:#F17649;}
</style></svg>
