<?xml version="1.0" encoding="utf-8"?>
<!-- Generator: Adobe Illustrator 27.9.0, SVG Export Plug-In . SVG Version: 6.00 Build 0)  -->
<svg version="1.1" id="katman_1" xmlns="http://www.w3.org/2000/svg" xmlns:xlink="http://www.w3.org/1999/xlink" x="0px" y="0px"
	 viewBox="0 0 1920 1080" style="enable-background:new 0 0 1920 1080;" xml:space="preserve">
<style type="text/css">
	.st0{fill:#F17649;}
</style>
<path class="st0" d="M1021.8,775.8c-11.2-2.5-22.6-4.2-33.5-7.5c-20.4-6.2-40.3-4.7-60.4,1c-9.4,2.7-19.2,4.1-28.9,5.2
	c-12,1.3-22.3-3.5-30.8-11.7c-6.9-6.7-13.6-13.8-19.3-21.5c-12.1-16.2-27.8-26.9-46.7-33.5c-7.8-2.7-15.4-6.3-22.8-10
	c-16.3-7.9-23.6-21.9-25.3-39.2c-0.9-8.8-1.6-17.6-2-26.4c-0.7-17-6.6-32.1-16.1-46c-4.6-6.7-8.8-13.8-12.8-20.9
	c-9.2-16.3-9.2-32.7,0-49c4.1-7.2,8.3-14.5,13-21.3c10.4-15,15.5-31.4,16.1-49.6c0.3-9.3,1.4-18.6,2.7-27.8
	c2.4-17.4,12.7-28.9,28.3-36c6.8-3.1,13.7-6.2,20.8-8.6c19.5-6.6,34.6-18.7,46.8-35c4.8-6.4,10.3-12.2,15.9-17.9
	c11.9-11.9,26.3-15.9,42.6-12.2c10.2,2.3,20.4,4.7,30.6,7.3c17.9,4.6,35.3,1.8,52.7-3c7.7-2.1,15.6-3.6,23.4-5
	c13.6-2.3,25.5,1.7,35.5,10.9c6.1,5.6,12.1,11.6,16.9,18.3c13.8,19.4,32.1,31.9,54.6,39.1c6.6,2.1,12.8,5.5,19.1,8.6
	c14.8,7.5,22.2,20.2,24,36.3c1.5,13.1,2.4,26.2,3.7,39.3c1.1,11.4,6,21.3,11.9,30.9c6.1,9.9,12.3,19.8,17.7,30.1
	c7.4,14.2,6.3,28.7-1.2,42.6c-4.8,8.9-10.1,17.7-15.7,26.1c-9.4,14-13.4,29.5-14.3,46.1c-0.4,8-1.2,15.9-1.9,23.9
	c-1.7,18.7-11,32.1-28.1,40c-7.9,3.6-15.8,7.1-24,10c-17.2,6-30.8,16.7-42,30.9c-6,7.7-12.6,15.1-19.6,22
	c-8.4,8.2-18.5,12.9-30.7,12.1C1021.9,775,1021.9,775.4,1021.8,775.8z M1083,452.8c-0.5-0.2-1.1-0.4-1.6-0.6c-1.1,2-2.8,4-3.1,6.2
	c-0.5,4.5-3.2,6.8-7,7.3c-6.7,0.9-13.6,2-20.3,1.5c-18.6-1.4-36.2-6.8-53.6-13.4c-23.6-8.9-47.6-15.1-73.1-13.1
	c-23.2,1.8-43.2,10.3-58.4,28.6c-15.4,18.6-17.1,44.2-3.7,62.5c16.6,22.7,46.8,26,69.6,18.5c1.5-0.5,2.6-2.2,3.9-3.4
	c-0.3-0.4-0.5-0.9-0.8-1.3c-1.4,0.2-2.8,0.2-4.2,0.5c-9.8,2.1-19.7,2.9-29.8,1.6c-30.6-3.8-48.3-32.9-37-61.5
	c6.9-17.6,21.3-25,39.1-27.5c19-2.7,37.2,1.3,55.1,6.4c17.7,5,35.1,11.5,53,16c17.6,4.4,35.5,4.1,52.6-2.6
	c5.8-2.3,11.3-6.4,15.8-10.8C1083.5,463.7,1085.2,458.3,1083,452.8z M916.9,657.5c1.1,0.1,2,0.4,3,0.4c15.7-0.2,26.6-8.7,34.7-21.1
	c10.2-15.6,13-33.5,13.3-51.6c0.6-36.5,0.2-73,0.3-109.5c0-4.2-2-4.6-5-3.3c-3.7,1.6-7.1,3.6-10.7,5.4c-4,2-5.4,5-5.4,9.7
	c0.2,35.8,0.2,71.7-0.1,107.5c-0.1,14.2-1.6,28.3-7,41.6c-3.3,8.1-8.2,14.5-18,15.1C918.8,651.8,916.9,653.8,916.9,657.5z"/>
</svg>
